<svg width="16" height="16" viewBox="0 0 16 16" fill="none" xmlns="http://www.w3.org/2000/svg">
<path d="M7.17248 0.79163L5.02901 2.9351C4.59176 3.37235 4.59176 4.08127 5.02901 4.51852L7.17248 6.66198C7.60973 7.09923 8.31865 7.09923 8.7559 6.66198L10.8994 4.51852C11.3366 4.08127 11.3366 3.37235 10.8994 2.9351L8.7559 0.79163C8.31865 0.354382 7.60973 0.354382 7.17248 0.79163Z" fill="#B2DACC"/>
<path d="M2.93518 5.02894L0.791708 7.1724C0.35446 7.60965 0.35446 8.31857 0.791708 8.75582L2.93518 10.8993C3.37242 11.3365 4.08134 11.3365 4.51859 10.8993L6.66206 8.75582C7.09931 8.31857 7.09931 7.60965 6.66206 7.1724L4.51859 5.02893C4.08134 4.59169 3.37242 4.59169 2.93518 5.02894Z" fill="#B2DACC"/>
<path d="M11.4098 5.02894L9.26632 7.1724C8.82907 7.60965 8.82907 8.31857 9.26632 8.75582L11.4098 10.8993C11.847 11.3365 12.556 11.3365 12.9932 10.8993L15.1367 8.75582C15.5739 8.31857 15.5739 7.60965 15.1367 7.1724L12.9932 5.02894C12.556 4.59169 11.847 4.59169 11.4098 5.02894Z" fill="#B2DACC"/>
<path d="M7.17248 9.26624L5.02901 11.4097C4.59176 11.847 4.59176 12.5559 5.02901 12.9931L7.17248 15.1366C7.60973 15.5738 8.31865 15.5738 8.7559 15.1366L10.8994 12.9931C11.3366 12.5559 11.3366 11.847 10.8994 11.4097L8.7559 9.26624C8.31865 8.82899 7.60973 8.82899 7.17248 9.26624Z" fill="#B2DACC"/>
</svg>
