<svg width="40" height="32" viewBox="0 0 40 32" fill="none" xmlns="http://www.w3.org/2000/svg">
<path d="M0.093288 28.9825C0.0329514 28.8062 0 28.617 0 28.4203V1.74376C0 0.787158 0.776361 0.0119629 1.7344 0.0119629H13.4332C14.001 0.0119629 14.5491 0.220712 14.9728 0.597972L18.1293 3.40975C18.553 3.78701 19.1009 3.99576 19.6688 3.99576H32.8383C33.7963 3.99576 34.5727 4.77095 34.5727 5.72755V7.98555L0.093288 28.9825Z" fill="#00A16B"/>
<path d="M2.92334 19.5752V6.85953C2.92334 6.47583 3.23482 6.16504 3.61888 6.16504H31.3613C31.7455 6.16504 32.0568 6.47605 32.0568 6.85953V17.8205L2.92334 19.5752Z" fill="#E8E8E8"/>
<path d="M3.54688 20.3758V7.66007C3.54688 7.27637 3.85835 6.96558 4.24242 6.96558H31.9848C32.3691 6.96558 32.6803 7.27659 32.6803 7.66007V18.6211L3.54688 20.3758Z" fill="white"/>
<path d="M39.9355 10.1811L34.4071 30.0423C34.1907 30.8197 33.4818 31.3577 32.6736 31.3577H1.80013C0.612765 31.3577 -0.248868 30.2295 0.0650603 29.0861L4.67491 12.3026C4.88153 11.5503 5.56638 11.0288 6.34764 11.0288H21.1542C21.5669 11.0288 21.9722 10.9185 22.3279 10.7093L26.4155 8.30505C26.7712 8.09586 27.1765 7.9856 27.5892 7.9856H38.2644C39.4114 7.9856 40.2426 9.07758 39.9355 10.1811Z" fill="#37C267"/>
</svg>
