<svg width="15" height="15" viewBox="0 0 15 15" fill="none" xmlns="http://www.w3.org/2000/svg">
<path fill-rule="evenodd" clip-rule="evenodd" d="M7.5 6C8.29565 6 9.05871 5.68393 9.62132 5.12132C10.1839 4.55871 10.5 3.79565 10.5 3C10.5 2.20435 10.1839 1.44129 9.62132 0.87868C9.05871 0.316071 8.29565 0 7.5 0C6.70435 0 5.94129 0.316071 5.37868 0.87868C4.81607 1.44129 4.5 2.20435 4.5 3C4.5 3.79565 4.81607 4.55871 5.37868 5.12132C5.94129 5.68393 6.70435 6 7.5 6ZM0.5 15C0.5 14.0807 0.68106 13.1705 1.03284 12.3212C1.38463 11.4719 1.90024 10.7003 2.55025 10.0503C3.20026 9.40024 3.97194 8.88463 4.82122 8.53284C5.6705 8.18106 6.58075 8 7.5 8C8.41925 8 9.3295 8.18106 10.1788 8.53284C11.0281 8.88463 11.7997 9.40024 12.4497 10.0503C13.0998 10.7003 13.6154 11.4719 13.9672 12.3212C14.3189 13.1705 14.5 14.0807 14.5 15H0.5Z" fill="#00A16B"/>
</svg>
