<svg width="101" height="28" viewBox="0 0 101 28" fill="none" xmlns="http://www.w3.org/2000/svg">
<path d="M44.2736 4.26961C45.654 4.26961 46.8435 4.51059 47.8421 4.99256C48.8554 5.47452 49.6264 6.15982 50.155 7.04844C50.6837 7.92201 50.948 8.94618 50.948 10.121C50.948 11.2807 50.6837 12.3049 50.155 13.1935C49.6264 14.0671 48.8554 14.7448 47.8421 15.2268C46.8435 15.7088 45.654 15.9497 44.2736 15.9497H37.1147V12.1995H43.9873C44.7215 12.1995 45.2943 12.0187 45.7054 11.6572C46.1166 11.2807 46.3222 10.7686 46.3222 10.121C46.3222 9.45827 46.1166 8.94618 45.7054 8.58471C45.2943 8.20817 44.7215 8.0199 43.9873 8.0199H37.5112L39.5597 5.85106V21.2137H35V4.26961H44.2736Z" fill="#00A16B"/>
<path d="M52.6321 8.11027L54.9009 8.56212L57.1478 8.11027V21.2137H52.6321V8.11027ZM54.8789 7.04844C54.1006 7.04844 53.4692 6.85264 52.9845 6.46105C52.4999 6.05439 52.2576 5.50465 52.2576 4.81182C52.2576 4.13405 52.4999 3.59184 52.9845 3.18518C53.4692 2.77852 54.1006 2.5752 54.8789 2.5752C55.6866 2.5752 56.3254 2.77852 56.7953 3.18518C57.2799 3.59184 57.5222 4.13405 57.5222 4.81182C57.5222 5.50465 57.2799 6.05439 56.7953 6.46105C56.3254 6.85264 55.6866 7.04844 54.8789 7.04844Z" fill="#00A16B"/>
<path d="M58.1254 21.2137L63.9627 13.9842L63.9407 15.3398L58.4558 8.3136H63.4561L67.0026 12.7643H65.6809L69.2273 8.3136H74.1615L68.4784 15.3849L68.2581 13.555L74.514 21.2137H69.4036L65.5487 16.4468H66.9585L63.1477 21.2137H58.1254Z" fill="#00A16B"/>
<path d="M74.336 11.4991H80.1293V15.1364H74.336V11.4991Z" fill="#00A16B"/>
<path d="M82.5544 8.11027L84.8233 8.56212L87.0701 8.11027V21.2137H82.5544V8.11027ZM84.8012 7.04844C84.0229 7.04844 83.3915 6.85264 82.9069 6.46105C82.4223 6.05439 82.18 5.50465 82.18 4.81182C82.18 4.13405 82.4223 3.59184 82.9069 3.18518C83.3915 2.77852 84.0229 2.5752 84.8012 2.5752C85.6089 2.5752 86.2477 2.77852 86.7176 3.18518C87.2023 3.59184 87.4446 4.13405 87.4446 4.81182C87.4446 5.50465 87.2023 6.05439 86.7176 6.46105C86.2477 6.85264 85.6089 7.04844 84.8012 7.04844Z" fill="#00A16B"/>
<path d="M88.4442 11.725V9.71432L90.9994 8.65248L92.9379 4.83441H95.4931V8.3136H100.78V11.725H95.4931V15.5205C95.4931 16.4543 95.6766 17.1095 96.0438 17.486C96.4109 17.8626 97.0791 18.0508 98.0483 18.0508C98.6651 18.0508 99.2084 17.9981 99.6783 17.8927C100.163 17.7722 100.604 17.6216 101 17.4408V20.92C100.559 21.0857 99.9794 21.2363 99.2598 21.3719C98.5402 21.5074 97.7986 21.5752 97.035 21.5752C95.6399 21.5752 94.4945 21.3568 93.5987 20.92C92.7176 20.4832 92.0641 19.8582 91.6382 19.0449C91.2124 18.2165 90.9994 17.2526 90.9994 16.1531V11.725H88.4442Z" fill="#00A16B"/>
<circle cx="13.5752" cy="13.5752" r="13.5752" fill="#00A16B"/>
<path d="M9.01416 20.6578V7.34229H15.0958C16.0906 7.34229 16.9342 7.51227 17.6267 7.85224C18.3193 8.19221 18.8418 8.67698 19.1944 9.30656C19.5595 9.93613 19.7421 10.6979 19.7421 11.5919C19.7421 12.4859 19.5595 13.254 19.1944 13.8962C18.8418 14.5257 18.3193 15.0105 17.6267 15.3505C16.9342 15.6904 16.0906 15.8604 15.0958 15.8604H11.9417V20.6578H9.01416ZM11.9417 13.594H14.6048C15.3603 13.594 15.9332 13.424 16.3235 13.084C16.7264 12.744 16.9279 12.2467 16.9279 11.5919C16.9279 10.9372 16.7264 10.4461 16.3235 10.1187C15.9332 9.79133 15.3603 9.62764 14.6048 9.62764H11.9417V13.594Z" fill="white"/>
</svg>
