<svg width="16" height="16" viewBox="0 0 16 16" fill="none" xmlns="http://www.w3.org/2000/svg">
<g clip-path="url(#clip0_43_1440)">
<path d="M9.33301 9.33325L10.9997 10.9999" stroke="#64748B" stroke-linejoin="round"/>
<path d="M10.9553 12.3502C10.5702 11.9651 10.5702 11.3407 10.9553 10.9556C11.3405 10.5705 11.9648 10.5705 12.35 10.9556L14.3777 12.9833C14.7628 13.3684 14.7628 13.9928 14.3777 14.3779C13.9926 14.763 13.3682 14.763 12.9831 14.3779L10.9553 12.3502Z" stroke="#64748B" stroke-linecap="round"/>
<path d="M10.6663 5.99992C10.6663 3.42259 8.577 1.33325 5.99967 1.33325C3.42235 1.33325 1.33301 3.42259 1.33301 5.99992C1.33301 8.57725 3.42235 10.6666 5.99967 10.6666C8.577 10.6666 10.6663 8.57725 10.6663 5.99992Z" stroke="#64748B" stroke-linejoin="round"/>
</g>
<defs>
<clipPath id="clip0_43_1440">
<rect width="16" height="16" fill="white"/>
</clipPath>
</defs>
</svg>
